<svg width="11" height="11" xmlns="http://www.w3.org/2000/svg" fill="none">

 <g>
  <title>Layer 1</title>
  <path id="svg_2" fill="#ABC8EA" d="m9.314,4.3962c0,0.1233 -0.043,0.2394 -0.13,0.3265l-3.939,3.9391c-0.087,0.0871 -0.211,0.1379 -0.334,0.1379c-0.116,0 -0.24,-0.0508 -0.327,-0.1379l-2.626,-2.6261c-0.087,-0.087 -0.13,-0.2031 -0.13,-0.3264c0,-0.1233 0.043,-0.2467 0.13,-0.3337l0.66,-0.6529c0.087,-0.0871 0.204,-0.1379 0.327,-0.1379c0.123,0 0.239,0.0508 0.326,0.1379l1.64,1.6395l2.96,-2.9526c0.087,-0.087 0.203,-0.1378 0.326,-0.1378c0.123,0 0.24,0.0508 0.327,0.1378l0.66,0.6529c0.087,0.0871 0.13,0.2104 0.13,0.3337zm1.828,1.1752c0,-3.0759 -2.495,-5.5714 -5.571,-5.5714c-3.076,0 -5.571,2.4955 -5.571,5.5714c0,3.0759 2.495,5.5715 5.571,5.5715c3.076,0 5.571,-2.4956 5.571,-5.5715z"/>
 </g>
</svg>